<svg width="140" height="35" viewBox="0 0 140 35" fill="none" xmlns="http://www.w3.org/2000/svg">
<g clip-path="url(#clip0_848_6190)">
<g clip-path="url(#clip1_848_6190)">
<path d="M46.1613 19.1631C45.7249 19.9663 45.1353 20.5823 44.3944 21.0109C43.6527 21.4397 42.8573 21.6545 42.0059 21.6545C41.1771 21.6545 40.3974 21.4352 39.6671 20.995C38.9368 20.5547 38.3482 19.9219 37.9012 19.0974C37.4543 18.2729 37.2307 17.3108 37.2307 16.2103C37.2307 15.1101 37.4543 14.1586 37.9012 13.3554C38.3482 12.5531 38.9316 11.9425 39.6513 11.5244C40.3711 11.1073 41.156 10.8978 42.0059 10.8978C42.8573 10.8978 43.6527 11.1125 44.3944 11.5413C45.1353 11.9699 45.7249 12.5859 46.1613 13.3892C46.5968 14.1924 46.815 15.1545 46.815 16.2759C46.815 17.3977 46.5968 18.3608 46.1613 19.1631ZM46.815 9.7426C46.2044 8.90653 45.3923 8.21424 44.3786 7.66395C43.3636 7.11456 42.1801 6.83853 40.8286 6.83853C39.2801 6.83853 37.8792 7.22373 36.6249 7.99412C35.3711 8.76363 34.3785 9.86376 33.6482 11.2936C32.9179 12.7235 32.5527 14.3618 32.5527 16.2103C32.5527 18.0802 32.9179 19.7355 33.6482 21.1761C34.3785 22.6179 35.3711 23.7335 36.6249 24.5253C37.8792 25.3169 39.2695 25.7136 40.7961 25.7136C42.1475 25.7136 43.342 25.4332 44.3786 24.8723C45.4134 24.3113 46.2264 23.6013 46.815 22.7439V25.4164H51.4279V7.13587H46.815V9.7426Z" fill="#0C0D0C"/>
<path d="M61.4982 3.06351H57.2096V7.5543H55.2021V11.3235H57.2096V20.0758C57.2096 23.8344 59.004 25.7136 62.5927 25.7136H65.2689V21.8454H63.2921C62.6434 21.8454 62.182 21.7095 61.908 21.4362C61.6348 21.163 61.4982 20.7203 61.4982 20.1085V11.3235H65.2689V7.5543H61.4982V3.06351Z" fill="#0C0D0C"/>
<path d="M72.3583 14.5598C72.5286 13.3288 72.9922 12.3657 73.7489 11.6735C74.5049 10.9798 75.438 10.6337 76.547 10.6337C77.7184 10.6337 78.71 10.9914 79.5201 11.7063C80.3301 12.4207 80.7455 13.3723 80.7671 14.5598H72.3583ZM81.1988 7.9604C79.8666 7.21308 78.3582 6.83853 76.6743 6.83853C74.9263 6.83853 73.3809 7.22373 72.0384 7.99412C70.6959 8.76363 69.6506 9.86331 68.905 11.2932C68.1586 12.7235 67.7861 14.384 67.7861 16.2754C67.7861 18.146 68.1637 19.7959 68.9205 21.2258C69.6777 22.6556 70.7329 23.7606 72.0865 24.5421C73.4394 25.3232 74.9685 25.7136 76.6743 25.7136C78.7848 25.7136 80.5641 25.1474 82.0145 24.0141C83.4636 22.881 84.4441 21.4352 84.9557 19.6753H80.1272C79.4246 21.1485 78.2412 21.8852 76.5788 21.8852C75.4277 21.8852 74.4576 21.5116 73.669 20.7633C72.8804 20.0161 72.4323 18.982 72.3265 17.6622H85.2756C85.36 17.1337 85.4029 16.5399 85.4029 15.8796C85.4029 14.0982 85.0357 12.5202 84.3004 11.1449C83.5651 9.77012 82.5305 8.7086 81.1988 7.9604Z" fill="#0C0D0C"/>
<path d="M94.6587 7.01834C94.6587 6.00321 94.8859 5.30848 95.3396 4.91676C95.7933 4.52506 96.6062 4.34725 97.7786 4.36508V0.553641C95.0936 0.482777 93.1083 0.963608 91.7661 1.99613C90.4423 3.02909 89.7809 4.64983 89.7809 6.85792V7.74827H87.6254V11.4706H89.7809V24.8038V25.5342C89.7809 26.5494 89.5538 27.2437 89.1001 27.6353C88.6464 28.0276 87.8335 28.2053 86.6611 28.1875V31.9985C89.3461 32.0698 91.3313 31.5889 92.6736 30.556C93.9969 29.523 94.6587 27.9028 94.6587 25.6947V25.6637V24.8038V11.4706H97.9863V7.74827H94.6587V7.01834Z" fill="#0C0D0C"/>
<path d="M28.349 25.5471V24.8187V1.80515H23.7441V24.8187V25.6777V25.7073C23.7441 27.9107 24.3686 29.5282 25.6183 30.559C26.8854 31.5895 28.7595 32.0693 31.2942 31.9986V28.195C30.1874 28.2127 29.42 28.0353 28.9917 27.6444C28.5634 27.2535 28.349 26.5602 28.349 25.5471Z" fill="#0C0D0C"/>
<path d="M128.401 27.6443C127.972 27.2534 127.758 26.5601 127.758 25.547V24.8186V1.80515H123.153V24.8186V25.6776V25.7072C123.153 27.9112 123.778 29.5282 125.027 30.5589C126.295 31.5898 128.168 32.0696 130.703 31.9985V28.1953C129.597 28.2132 128.829 28.0352 128.401 27.6443Z" fill="#0C0D0C"/>
<path d="M113.415 17.1004C113.415 18.581 113.048 19.7194 112.314 20.5162C111.58 21.3127 110.567 21.71 109.278 21.71C108.01 21.71 107.009 21.3127 106.276 20.5162C105.542 19.7194 105.174 18.581 105.174 17.1004V6.83853H100.503V17.7737C100.503 19.4334 100.82 20.8637 101.454 22.0638C102.088 23.2639 102.96 24.1724 104.073 24.7888C105.185 25.406 106.464 25.7136 107.91 25.7136C109.044 25.7136 110.095 25.4838 111.063 25.024C112.031 24.5643 112.815 23.9308 113.415 23.1235V25.4784H118.12V6.83853H113.415V17.1004Z" fill="#0C0D0C"/>
<path d="M14.6112 13.4497C14.1634 12.6358 13.5729 12.0163 12.8413 11.5922C12.1092 11.169 11.3178 10.9565 10.4654 10.9565C9.63514 10.9565 8.8542 11.1744 8.12263 11.6094C7.39105 12.0443 6.8005 12.6754 6.35362 13.5002C5.90498 14.3258 5.68198 15.2974 5.68198 16.412C5.68198 17.529 5.90498 18.4996 6.35362 19.3252C6.8005 20.1509 7.39105 20.7812 8.12263 21.2161C8.8542 21.651 9.63514 21.8689 10.4654 21.8689C11.3178 21.8689 12.1092 21.6465 12.8413 21.1999C13.5729 20.7534 14.1634 20.1177 14.6112 19.292C15.059 18.4663 15.2829 17.4839 15.2829 16.3454C15.2829 15.2298 15.059 14.2646 14.6112 13.4497ZM8.12263 7.69217C9.16006 7.12312 10.3456 6.83859 11.6783 6.83859C13.2291 6.83859 14.6323 7.22937 15.8892 8.01091C17.1453 8.79155 18.1391 9.90174 18.8716 11.341C19.6031 12.7808 19.9689 14.4492 19.9689 16.3454C19.9689 18.243 19.6031 19.9222 18.8716 21.3836C18.1391 22.8458 17.1453 23.9781 15.8892 24.7812C14.6323 25.5843 13.2291 25.9868 11.6783 25.9868C10.3456 25.9868 9.17152 25.7068 8.15524 25.1495C7.13985 24.5921 6.31484 23.8889 5.68198 23.0407V34.5221H1.09375V7.14023H5.68198V9.818C6.27165 8.96983 7.08519 8.26122 8.12263 7.69217Z" fill="#0C0D0C"/>
</g>
</g>
<defs>
<clipPath id="clip0_848_6190">
<rect width="131.25" height="35" fill="white" transform="translate(0.273438)"/>
</clipPath>
<clipPath id="clip1_848_6190">
<rect width="131.25" height="35" fill="white" transform="translate(0.273438)"/>
</clipPath>
</defs>
</svg>
