<svg width="32" height="33" viewBox="0 0 32 33" fill="none" xmlns="http://www.w3.org/2000/svg">
<g clip-path="url(#clip0_848_6204)">
<path d="M27 6.5H5C4.44772 6.5 4 6.94772 4 7.5V25.5C4 26.0523 4.44772 26.5 5 26.5H27C27.5523 26.5 28 26.0523 28 25.5V7.5C28 6.94772 27.5523 6.5 27 6.5Z" stroke="black" stroke-width="2" stroke-linecap="round" stroke-linejoin="round"/>
<path d="M21 11.5C21 12.8261 20.4732 14.0979 19.5355 15.0355C18.5979 15.9732 17.3261 16.5 16 16.5C14.6739 16.5 13.4021 15.9732 12.4645 15.0355C11.5268 14.0979 11 12.8261 11 11.5" stroke="black" stroke-width="2" stroke-linecap="round" stroke-linejoin="round"/>
</g>
<defs>
<clipPath id="clip0_848_6204">
<rect width="32" height="32" fill="white" transform="translate(0 0.5)"/>
</clipPath>
</defs>
</svg>
