<svg width="100" height="21" viewBox="0 0 100 21" fill="none" xmlns="http://www.w3.org/2000/svg">
<path d="M10 0.0595703L12.2451 6.9694H19.5106L13.6327 11.2399L15.8779 18.1497L10 13.8792L4.12215 18.1497L6.36729 11.2399L0.489435 6.9694H7.75486L10 0.0595703Z" fill="#EC961E"/>
<path d="M30 0.0595703L32.2451 6.9694H39.5106L33.6327 11.2399L35.8779 18.1497L30 13.8792L24.1221 18.1497L26.3673 11.2399L20.4894 6.9694H27.7549L30 0.0595703Z" fill="#EC961E"/>
<path d="M50 0.0595703L52.2451 6.9694H59.5106L53.6327 11.2399L55.8779 18.1497L50 13.8792L44.1221 18.1497L46.3673 11.2399L40.4894 6.9694H47.7549L50 0.0595703Z" fill="#EC961E"/>
<path d="M70 0.0595703L72.2451 6.9694H79.5106L73.6327 11.2399L75.8779 18.1497L70 13.8792L64.1221 18.1497L66.3673 11.2399L60.4894 6.9694H67.7549L70 0.0595703Z" fill="#EC961E"/>
<path d="M90 0.0595703L92.2451 6.9694H99.5106L93.6327 11.2399L95.8779 18.1497L90 13.8792L84.1221 18.1497L86.3673 11.2399L80.4894 6.9694H87.7549L90 0.0595703Z" fill="#EC961E"/>
</svg>
