<svg width="48" height="49" viewBox="0 0 48 49" fill="none" xmlns="http://www.w3.org/2000/svg">
<g clip-path="url(#clip0_857_5093)">
<mask id="mask0_857_5093" style="mask-type:luminance" maskUnits="userSpaceOnUse" x="-1" y="0" width="49" height="49">
<path d="M-0.00488281 0.0595741H47.9951V48.0596H-0.00488281V0.0595741Z" fill="white"/>
</mask>
<g mask="url(#mask0_857_5093)">
<path d="M6.08789 1.46582H41.9004C43.4473 1.46582 44.7129 2.73145 44.7129 4.27832V43.8408C44.7129 45.3877 43.4473 46.6533 41.9004 46.6533H6.08789C4.54102 46.6533 3.27539 45.3877 3.27539 43.8408V4.27832C3.27539 2.73145 4.54102 1.46582 6.08789 1.46582Z" stroke="#F8F4EC" stroke-width="1.875" stroke-miterlimit="22.926" stroke-linecap="round" stroke-linejoin="round"/>
<path fill-rule="evenodd" clip-rule="evenodd" d="M39.0879 8.49707C39.8625 8.49707 40.4941 7.86538 40.4941 7.09091C40.4941 6.31635 39.8625 5.68466 39.0879 5.68466C38.3133 5.68466 37.6816 6.31635 37.6816 7.09091C37.6816 7.86538 38.3133 8.49707 39.0879 8.49707Z" fill="#F8F4EC"/>
<path fill-rule="evenodd" clip-rule="evenodd" d="M33.4629 8.49707C34.2374 8.49707 34.869 7.86538 34.869 7.09091C34.869 6.31635 34.2374 5.68466 33.4629 5.68466C32.6883 5.68466 32.0566 6.31635 32.0566 7.09091C32.0566 7.86538 32.6883 8.49707 33.4629 8.49707Z" fill="#F8F4EC"/>
<path fill-rule="evenodd" clip-rule="evenodd" d="M14.5254 8.49707C15.3 8.49707 15.9316 7.86538 15.9316 7.09091C15.9316 6.31635 15.3 5.68466 14.5254 5.68466C13.7509 5.68466 13.1191 6.31635 13.1191 7.09091C13.1191 7.86538 13.7509 8.49707 14.5254 8.49707Z" fill="#F8F4EC"/>
<path fill-rule="evenodd" clip-rule="evenodd" d="M8.90039 8.49707C9.67495 8.49707 10.3066 7.86538 10.3066 7.09091C10.3066 6.31635 9.67495 5.68466 8.90039 5.68466C8.12592 5.68466 7.49414 6.31635 7.49414 7.09091C7.49414 7.86538 8.12592 8.49707 8.90039 8.49707Z" fill="#F8F4EC"/>
<path d="M4.40039 12.7158H43.7754" stroke="#F8F4EC" stroke-width="1.875" stroke-miterlimit="22.926" stroke-linecap="round" stroke-linejoin="round"/>
<path d="M20.1504 1.46582V12.7158" stroke="#F8F4EC" stroke-width="1.875" stroke-miterlimit="22.926" stroke-linecap="round" stroke-linejoin="round"/>
<path d="M27.8379 1.46582V12.7158" stroke="#F8F4EC" stroke-width="1.875" stroke-miterlimit="22.926" stroke-linecap="round" stroke-linejoin="round"/>
<path d="M20.1363 21.121C19.3584 20.8979 18.5374 20.7783 17.6895 20.7783C12.7841 20.7783 8.7832 24.7792 8.7832 29.6846C8.7832 34.5899 12.7841 38.5908 17.6895 38.5908" fill="#FFB68D"/>
<path d="M20.1363 21.121C19.3584 20.8979 18.5374 20.7783 17.6895 20.7783C12.7841 20.7783 8.7832 24.7792 8.7832 29.6846C8.7832 34.5899 12.7841 38.5908 17.6895 38.5908" stroke="#F8F4EC" stroke-width="1.875" stroke-miterlimit="22.926" stroke-linecap="round" stroke-linejoin="round"/>
<path d="M27.0585 21.3449C26.086 20.9788 25.0334 20.7783 23.9355 20.7783C19.0302 20.7783 15.0293 24.7792 15.0293 29.6846C15.0293 34.5899 19.0302 38.5908 23.9355 38.5908" fill="#303030"/>
<path d="M27.0585 21.3449C26.086 20.9788 25.0334 20.7783 23.9355 20.7783C19.0302 20.7783 15.0293 24.7792 15.0293 29.6846C15.0293 34.5899 19.0302 38.5908 23.9355 38.5908" stroke="#F8F4EC" stroke-width="1.875" stroke-miterlimit="22.926" stroke-linecap="round" stroke-linejoin="round"/>
<path d="M30.1816 38.5908C35.087 38.5908 39.0879 34.5899 39.0879 29.6846C39.0879 24.7792 35.087 20.7783 30.1816 20.7783C25.2763 20.7783 21.2754 24.7792 21.2754 29.6846C21.2754 34.5899 25.2763 38.5908 30.1816 38.5908Z" fill="#D8692B" stroke="#F8F4EC" stroke-width="1.875" stroke-miterlimit="22.926" stroke-linecap="round" stroke-linejoin="round"/>
<path d="M30.1816 32.4971C31.7307 32.4971 32.9941 31.2336 32.9941 29.6846C32.9941 28.1355 31.7307 26.872 30.1816 26.872C28.6326 26.872 27.3691 28.1355 27.3691 29.6846C27.3691 31.2336 28.6326 32.4971 30.1816 32.4971Z" stroke="#F8F4EC" stroke-width="1.875" stroke-miterlimit="22.926" stroke-linecap="round" stroke-linejoin="round"/>
<path d="M3.27539 38.5913H44.7129" stroke="#F8F4EC" stroke-width="1.875" stroke-miterlimit="22.926" stroke-linecap="round" stroke-linejoin="round"/>
</g>
</g>
<defs>
<clipPath id="clip0_857_5093">
<rect width="48" height="48" fill="white" transform="translate(0 0.0595703)"/>
</clipPath>
</defs>
</svg>
